HIERARCHY
ROOT Hips
{
	OFFSET 0.000000 100.481300 0.000000
	CHANNELS 6 Xposition Yposition Zposition Xrotation Yrotation Zrotation
	JOINT Spine
	{
		OFFSET -0.279200 12.230698 -2.892100
		CHANNELS 3 Xrotation Yrotation Zrotation
		JOINT Spine1
		{
			OFFSET -0.325700 14.269203 -3.374200
			CHANNELS 3 Xrotation Yrotation Zrotation
			JOINT Spine2
			{
				OFFSET -0.372300 16.307602 -0.352600
				CHANNELS 3 Xrotation Yrotation Zrotation
				JOINT Neck
				{
					OFFSET -0.418800 17.814194 8.416900
					CHANNELS 3 Xrotation Yrotation Zrotation
					JOINT Head
					{
						OFFSET 0.000000 7.031097 3.806800
						CHANNELS 3 Xrotation Yrotation Zrotation
						JOINT HeadTop_End
						{
							OFFSET 0.000000 24.646606 12.978600
							CHANNELS 3 Xrotation Yrotation Zrotation
							End Site
							{
								OFFSET 0.000000 27.854965 0.000000
							}
						}
					}
				}
				JOINT LeftShoulder
				{
					OFFSET 16.952999 14.495407 -7.737500
					CHANNELS 3 Xrotation Yrotation Zrotation
					JOINT LeftArm
					{
						OFFSET 9.308998 -2.777710 0.208600
						CHANNELS 3 Xrotation Yrotation Zrotation
						JOINT LeftForeArm
						{
							OFFSET 29.972298 0.000000 0.000000
							CHANNELS 3 Xrotation Yrotation Zrotation
							JOINT LeftHand
							{
								OFFSET 26.026505 0.000000 0.000000
								CHANNELS 3 Xrotation Yrotation Zrotation
								JOINT LeftHandThumb1
								{
									OFFSET 12.240501 -7.147949 9.207150
									CHANNELS 3 Xrotation Yrotation Zrotation
									JOINT LeftHandThumb2
									{
										OFFSET 4.138618 -2.389435 2.389433
										CHANNELS 3 Xrotation Yrotation Zrotation
										JOINT LeftHandThumb3
										{
											OFFSET 2.726913 -1.574387 1.574386
											CHANNELS 3 Xrotation Yrotation Zrotation
											JOINT LeftHandThumb4
											{
												OFFSET 3.941010 -2.275345 2.275342
												CHANNELS 3 Xrotation Yrotation Zrotation
												End Site
												{
													OFFSET -0.005798 5.087799 0.009903
												}
											}
										}
									}
								}
								JOINT LeftHandIndex1
								{
									OFFSET 24.424698 -1.985611 5.953459
									CHANNELS 3 Xrotation Yrotation Zrotation
									JOINT LeftHandIndex2
									{
										OFFSET 6.426697 0.000000 0.000000
										CHANNELS 3 Xrotation Yrotation Zrotation
										JOINT LeftHandIndex3
										{
											OFFSET 5.337898 0.000000 0.000000
											CHANNELS 3 Xrotation Yrotation Zrotation
											JOINT LeftHandIndex4
											{
												OFFSET 4.409401 0.000000 0.000000
												CHANNELS 3 Xrotation Yrotation Zrotation
												End Site
												{
													OFFSET 0.000000 4.409363 0.014373
												}
											}
										}
									}
								}
								JOINT LeftHandMiddle1
								{
									OFFSET 23.810104 0.000000 0.000000
									CHANNELS 3 Xrotation Yrotation Zrotation
									JOINT LeftHandMiddle2
									{
										OFFSET 7.176498 0.000000 0.000000
										CHANNELS 3 Xrotation Yrotation Zrotation
										JOINT LeftHandMiddle3
										{
											OFFSET 6.774902 0.000000 0.000000
											CHANNELS 3 Xrotation Yrotation Zrotation
											JOINT LeftHandMiddle4
											{
												OFFSET 5.403328 0.000000 0.000000
												CHANNELS 3 Xrotation Yrotation Zrotation
												End Site
												{
													OFFSET -0.027702 5.403244 0.017414
												}
											}
										}
									}
								}
								JOINT LeftHandRing1
								{
									OFFSET 22.908401 -0.839279 -6.020567
									CHANNELS 3 Xrotation Yrotation Zrotation
									JOINT LeftHandRing2
									{
										OFFSET 6.337502 0.000000 0.000000
										CHANNELS 3 Xrotation Yrotation Zrotation
										JOINT LeftHandRing3
										{
											OFFSET 5.779297 0.000000 0.000000
											CHANNELS 3 Xrotation Yrotation Zrotation
											JOINT LeftHandRing4
											{
												OFFSET 4.965698 0.000000 0.000000
												CHANNELS 3 Xrotation Yrotation Zrotation
												End Site
												{
													OFFSET 0.000000 4.965668 0.016186
												}
											}
										}
									}
								}
								JOINT LeftHandPinky1
								{
									OFFSET 20.037003 -1.530319 -10.950146
									CHANNELS 3 Xrotation Yrotation Zrotation
									JOINT LeftHandPinky2
									{
										OFFSET 5.254700 0.000000 0.000000
										CHANNELS 3 Xrotation Yrotation Zrotation
										JOINT LeftHandPinky3
										{
											OFFSET 4.810204 0.000000 0.000000
											CHANNELS 3 Xrotation Yrotation Zrotation
											JOINT LeftHandPinky4
											{
												OFFSET 3.647202 0.000000 0.000000
												CHANNELS 3 Xrotation Yrotation Zrotation
												End Site
												{
													OFFSET 0.000000 3.647186 0.011889
												}
											}
										}
									}
								}
							}
						}
					}
				}
				JOINT RightShoulder
				{
					OFFSET -15.141001 14.495407 -7.737500
					CHANNELS 3 Xrotation Yrotation Zrotation
					JOINT RightArm
					{
						OFFSET -9.308998 -2.777710 0.208500
						CHANNELS 3 Xrotation Yrotation Zrotation
						JOINT RightForeArm
						{
							OFFSET -29.972300 0.000000 0.000000
							CHANNELS 3 Xrotation Yrotation Zrotation
							JOINT RightHand
							{
								OFFSET -26.026505 0.000000 0.000000
								CHANNELS 3 Xrotation Yrotation Zrotation
								JOINT RightHandThumb1
								{
									OFFSET -12.240601 -7.148026 9.207092
									CHANNELS 3 Xrotation Yrotation Zrotation
									JOINT RightHandThumb2
									{
										OFFSET -4.138618 -2.389435 2.389433
										CHANNELS 3 Xrotation Yrotation Zrotation
										JOINT RightHandThumb3
										{
											OFFSET -2.726974 -1.574417 1.574421
											CHANNELS 3 Xrotation Yrotation Zrotation
											JOINT RightHandThumb4
											{
												OFFSET -3.941010 -2.275345 2.275343
												CHANNELS 3 Xrotation Yrotation Zrotation
												End Site
												{
													OFFSET 0.005814 5.087799 0.009927
												}
											}
										}
									}
								}
								JOINT RightHandIndex1
								{
									OFFSET -24.424698 -1.985657 5.953444
									CHANNELS 3 Xrotation Yrotation Zrotation
									JOINT RightHandIndex2
									{
										OFFSET -6.426697 0.000000 0.000000
										CHANNELS 3 Xrotation Yrotation Zrotation
										JOINT RightHandIndex3
										{
											OFFSET -5.337898 0.000000 0.000000
											CHANNELS 3 Xrotation Yrotation Zrotation
											JOINT RightHandIndex4
											{
												OFFSET -4.409401 0.000000 0.000000
												CHANNELS 3 Xrotation Yrotation Zrotation
												End Site
												{
													OFFSET 0.000000 4.409363 0.014408
												}
											}
										}
									}
								}
								JOINT RightHandMiddle1
								{
									OFFSET -23.810097 0.000000 0.000000
									CHANNELS 3 Xrotation Yrotation Zrotation
									JOINT RightHandMiddle2
									{
										OFFSET -7.176498 0.000000 0.000000
										CHANNELS 3 Xrotation Yrotation Zrotation
										JOINT RightHandMiddle3
										{
											OFFSET -6.774902 0.000000 0.000000
											CHANNELS 3 Xrotation Yrotation Zrotation
											JOINT RightHandMiddle4
											{
												OFFSET -5.403328 0.000000 0.000000
												CHANNELS 3 Xrotation Yrotation Zrotation
												End Site
												{
													OFFSET 0.027702 5.403244 0.017457
												}
											}
										}
									}
								}
								JOINT RightHandRing1
								{
									OFFSET -22.908302 -0.839325 -6.020576
									CHANNELS 3 Xrotation Yrotation Zrotation
									JOINT RightHandRing2
									{
										OFFSET -6.337502 0.000000 0.000000
										CHANNELS 3 Xrotation Yrotation Zrotation
										JOINT RightHandRing3
										{
											OFFSET -5.779297 0.000000 0.000000
											CHANNELS 3 Xrotation Yrotation Zrotation
											JOINT RightHandRing4
											{
												OFFSET -4.965698 0.000000 0.000000
												CHANNELS 3 Xrotation Yrotation Zrotation
												End Site
												{
													OFFSET 0.000000 4.965668 0.016226
												}
											}
										}
									}
								}
								JOINT RightHandPinky1
								{
									OFFSET -20.037003 -1.530334 -10.950259
									CHANNELS 3 Xrotation Yrotation Zrotation
									JOINT RightHandPinky2
									{
										OFFSET -5.254700 0.000000 0.000000
										CHANNELS 3 Xrotation Yrotation Zrotation
										JOINT RightHandPinky3
										{
											OFFSET -4.810204 0.000000 0.000000
											CHANNELS 3 Xrotation Yrotation Zrotation
											JOINT RightHandPinky4
											{
												OFFSET -3.647202 0.000000 0.000000
												CHANNELS 3 Xrotation Yrotation Zrotation
												End Site
												{
													OFFSET 0.000000 3.647186 0.011917
												}
											}
										}
									}
								}
							}
						}
					}
				}
			}
		}
	}
	JOINT LeftUpLeg
	{
		OFFSET 15.427100 -6.655098 0.678600
		CHANNELS 3 Xrotation Yrotation Zrotation
		JOINT LeftLeg
		{
			OFFSET 4.081073 -39.591068 13.024000
			CHANNELS 3 Xrotation Yrotation Zrotation
			JOINT LeftFoot
			{
				OFFSET -4.081074 -37.707932 -15.979700
				CHANNELS 3 Xrotation Yrotation Zrotation
				JOINT LeftToeBase
				{
					OFFSET 5.346399 -15.068900 20.645000
					CHANNELS 3 Xrotation Yrotation Zrotation
					JOINT LeftToe_End
					{
						OFFSET 2.754700 0.931300 11.300900
						CHANNELS 3 Xrotation Yrotation Zrotation
						End Site
						{
							OFFSET 0.000000 11.669021 0.000000
						}
					}
				}
			}
		}
	}
	JOINT RightUpLeg
	{
		OFFSET -15.569500 -6.655098 0.678600
		CHANNELS 3 Xrotation Yrotation Zrotation
		JOINT RightLeg
		{
			OFFSET -4.081825 -39.591045 13.023800
			CHANNELS 3 Xrotation Yrotation Zrotation
			JOINT RightFoot
			{
				OFFSET 4.081824 -37.707954 -15.979600
				CHANNELS 3 Xrotation Yrotation Zrotation
				JOINT RightToeBase
				{
					OFFSET -5.346400 -15.068900 20.645000
					CHANNELS 3 Xrotation Yrotation Zrotation
					JOINT RightToe_End
					{
						OFFSET -2.754700 0.931300 11.300900
						CHANNELS 3 Xrotation Yrotation Zrotation
						End Site
						{
							OFFSET 0.000000 11.669021 0.000000
						}
					}
				}
			}
		}
	}
}
MOTION
Frames: 5
Frame Time: 0.033333
1.500469 77.525597 4.079895 -18.639427 -34.832797 -7.915598 25.537311 -10.264061 5.560701 2.843955 -3.342957 -0.645260 2.874932 -3.369095 -0.549615 -2.975246 8.300468 6.125758 27.212922 28.246135 -9.543820 0.000001 0.000002 -0.000001 -38.175942 15.224456 -10.279583 -23.371432 -19.258762 -49.051560 -0.000199 -71.215111 -0.000193 -124.543800 -4.786845 33.325576 4.709230 9.560369 3.111991 19.473195 -1.474901 7.636918 -4.536190 -9.613106 1.492971 0.000001 -0.000002 0.000002 -0.212813 3.933724 -36.747128 2.942143 5.078891 -60.144610 0.513673 2.400831 -24.150499 -0.000005 0.000001 0.000001 0.405922 5.507060 -52.453155 3.387139 5.308613 -65.057470 0.282019 1.797462 -17.832376 -0.000001 -0.000001 0.000003 -0.074383 5.736782 -61.061420 4.055043 5.569523 -72.094894 0.582662 2.548957 -25.748003 0.000000 0.000000 -0.000001 -6.565579 4.545133 -72.425236 3.299607 5.267216 -64.107821 0.175355 1.424034 -14.038872 -0.000000 -0.000003 -0.000000 -43.899432 -11.774327 -5.883524 -58.746218 72.756835 117.587389 0.003919 91.966393 -0.003809 -58.246351 -15.534384 -20.137351 8.377127 -4.904136 11.022032 21.620195 -18.183898 -18.379230 -0.702898 -49.821206 -32.535145 0.000000 0.000000 -0.000001 -0.920021 1.683582 12.434986 0.748119 -2.533451 32.898279 0.615635 -2.316067 29.767832 0.000000 0.000000 -0.000001 3.413056 -7.186263 51.650253 6.296817 -4.359582 110.634646 0.248724 -1.503066 18.790265 0.000000 0.000000 -0.000000 -3.349026 -2.600412 57.010571 5.440854 -4.590915 99.698168 1.689419 -3.590701 50.382245 0.000000 0.000000 -0.000001 -3.996438 -3.303918 64.593850 4.058845 -4.618667 82.610530 2.315557 -4.026801 59.787214 0.000000 -0.000001 0.000001 -29.847302 4.498014 15.969365 71.076103 7.296853 -0.687612 0.523052 2.706692 -15.027058 -4.250282 0.111120 -0.530068 -0.000003 -0.000000 0.000000 -30.844263 -5.656261 4.779211 53.018626 -9.253030 -4.578288 -7.709286 -10.048799 -7.303777 -2.093293 -0.000010 0.000001 -0.000000 -0.000002 -0.000000 
1.694072 76.182861 -7.388148 -18.694079 -35.039683 -11.042037 27.093655 -11.030621 8.031779 1.279180 -3.440435 -0.943613 1.303692 -3.457482 -0.835078 1.141253 8.142890 7.579657 24.702574 28.441649 -11.104160 0.000000 -0.000000 0.000000 -38.688169 15.129007 -6.109854 -22.507632 -19.696184 -51.514683 0.000113 -69.853007 0.000113 -123.171424 -6.298861 32.583359 4.253645 8.742530 3.904017 20.006261 0.472512 6.292384 -4.691025 -9.656148 1.833245 0.000003 0.000001 0.000001 -0.220526 3.803817 -35.062954 2.764593 4.973173 -58.118093 0.470826 2.302954 -23.106409 -0.000003 -0.000001 -0.000001 0.505348 5.554703 -51.891853 3.368021 5.299724 -64.850542 0.316501 1.901263 -18.900843 -0.000000 -0.000002 0.000002 -0.362007 5.533630 -60.494145 3.887921 5.512983 -70.364295 0.558681 2.498670 -25.203261 -0.000001 0.000001 -0.000000 -6.426072 4.450963 -71.750659 3.227453 5.231714 -63.319016 0.196991 1.507927 -14.885122 -0.000002 0.000001 -0.000004 -43.024704 -11.968686 -6.924995 -60.520585 71.915267 119.104811 0.026931 88.898737 -0.026940 -59.717314 -12.131055 -15.974767 7.770866 -4.678092 9.700976 21.281932 -18.162023 -17.852342 -0.626158 -48.925775 -31.980206 -0.000000 0.000001 -0.000000 -0.862882 1.497076 12.233108 0.722034 -2.492701 32.303151 0.575062 -2.243679 28.747710 0.000000 -0.000000 0.000000 3.196025 -6.966238 52.990595 6.264191 -4.371680 110.206270 0.301446 -1.649851 20.706545 0.000000 -0.000000 -0.000000 -3.223373 -2.783771 57.763005 5.413594 -4.595466 99.357669 1.751763 -3.641284 51.370601 0.000000 0.000002 0.000000 -3.872566 -3.453532 65.232056 3.941874 -4.602057 81.155515 2.257021 -3.992234 58.950215 -0.000000 0.000001 0.000001 -25.606861 5.075283 13.652077 81.065220 7.733159 0.083854 -2.690786 -4.781816 -14.201455 -17.675433 -1.148416 2.756127 0.000000 0.000001 -0.000000 -34.058458 -9.293563 12.290667 42.839595 -11.635807 -4.231763 4.530443 -10.180423 -11.812071 -2.072224 0.000048 -0.001474 0.000000 0.000000 0.000000 
2.062418 76.518280 -19.563805 -18.245927 -37.600113 -13.763899 27.153700 -12.394069 9.317140 1.424706 -3.515890 -1.163715 1.439728 -3.537054 -1.061832 4.796457 8.552699 6.864335 21.153350 29.795092 -12.004436 -0.000002 -0.000002 0.000002 -38.586310 14.402688 -3.773396 -22.233114 -16.471085 -51.965193 -0.000170 -73.319758 -0.000168 -119.609849 -8.521889 33.556719 3.980668 8.325799 4.344193 20.609908 2.267653 4.900451 -4.792211 -9.488127 2.128220 -0.000000 0.000000 0.000000 0.331564 4.594322 -35.134619 2.651330 4.901185 -56.802336 0.455129 2.265853 -22.712633 0.000002 -0.000001 0.000001 1.480316 6.318325 -51.985068 3.224118 5.230037 -63.282427 0.304508 1.865859 -18.535776 -0.000002 0.000000 0.000005 -0.244494 5.551685 -59.852545 3.675565 5.432902 -68.138261 0.510659 2.394072 -24.078174 0.000001 -0.000000 -0.000001 -6.278053 4.259666 -70.567343 3.104923 5.168586 -61.967158 0.203512 1.532231 -15.130925 -0.000000 -0.000000 -0.000002 -41.899727 -11.473523 -6.500968 -62.372434 72.417292 119.273094 -0.000449 86.076318 0.000432 -60.573874 -7.487526 -10.243738 7.246381 -4.586145 7.848311 21.138363 -18.360339 -17.265183 -0.613534 -47.993410 -31.465455 0.000000 -0.000000 0.000002 -0.564263 0.350337 11.342516 0.698827 -2.455696 31.766045 0.537997 -2.174777 27.785993 -0.000000 -0.000000 0.000000 2.880719 -6.689005 54.670969 6.230825 -4.383803 109.768947 0.355633 -1.786603 22.513555 0.000000 0.000000 -0.000000 -3.282639 -2.841164 58.468229 5.363525 -4.603417 98.733144 1.792251 -3.673248 52.005617 0.000001 0.000000 -0.000000 -3.964987 -3.464754 65.610435 3.811880 -4.579988 79.531351 2.185195 -3.948176 57.912785 -0.000001 -0.000001 0.000001 -17.841981 7.532204 9.354557 83.837915 8.120165 1.248180 -6.835805 -7.411326 -21.127097 -20.990157 -8.023005 14.731844 0.000001 -0.000001 0.000000 -35.895154 -14.911237 14.937497 33.101371 -12.838082 -0.448515 22.544644 -7.580789 -19.350319 -7.550065 0.149889 -1.661379 -0.000000 -0.000000 -0.000000 
1.324364 76.854881 -30.735380 -17.674786 -40.396963 -14.318944 26.268933 -14.157049 7.291128 2.405734 -3.546753 -0.866801 2.422745 -3.569021 -0.781399 2.808458 8.031758 8.287186 22.820627 30.379408 -14.331957 0.000001 0.000000 -0.000000 -37.461873 13.201929 -4.904370 -23.932602 -12.593448 -50.518548 0.000480 -80.836129 0.000448 -114.292841 -10.350625 38.429096 3.783997 7.984139 4.305428 21.265411 3.913632 3.468997 -5.068868 -10.388449 2.560213 -0.000000 0.000003 -0.000002 1.066739 5.643835 -36.533097 2.603983 4.869991 -56.246263 0.467331 2.294764 -23.019247 0.000000 0.000000 -0.000003 2.871263 7.393156 -52.306053 3.061498 5.145303 -61.484072 0.283613 1.802437 -17.883582 0.000000 -0.000003 0.000001 0.202800 5.770032 -59.220165 3.446716 5.335821 -65.699836 0.452974 2.260691 -22.657981 -0.000001 0.000001 0.000002 -5.779568 4.187878 -69.276806 2.985631 5.103535 -60.634724 0.209349 1.553659 -15.347608 -0.000001 -0.000002 -0.000000 -40.535803 -10.938627 -4.861863 -57.300506 73.925214 111.270905 -0.000081 87.363734 0.000066 -61.941968 -4.358530 -6.843844 6.817913 -4.436856 7.331870 21.281474 -18.947826 -16.577656 -0.570618 -47.268809 -31.014103 0.000002 -0.000000 -0.000000 -0.344919 -0.692126 11.015267 0.679743 -2.424601 31.317756 0.504208 -2.109500 26.882530 0.000000 0.000000 -0.000001 3.040627 -6.778089 55.582218 6.202901 -4.393704 109.404263 0.410434 -1.913418 24.211282 -0.000001 -0.000000 -0.000000 -3.361398 -2.877712 59.096053 5.326827 -4.608890 98.276245 1.839053 -3.709239 52.732421 0.000000 0.000000 -0.000002 -4.034120 -3.465926 65.837245 3.721168 -4.562341 78.393168 2.144830 -3.922659 57.324862 -0.000000 -0.000000 0.000002 -8.980224 10.951302 2.824837 80.391825 7.369468 2.655537 -11.858446 -10.341127 -27.264496 -21.823476 -14.767731 21.413089 -0.000003 0.000002 0.000001 -41.489277 -14.976214 14.432246 30.797234 -12.296706 -0.419149 37.437674 -0.272655 1.267399 -12.331393 1.349151 -7.014251 -0.000000 -0.000001 -0.000001 
0.173069 77.150635 -41.001190 -14.947512 -42.841894 -14.523492 22.863261 -14.648526 5.797480 3.153569 -3.550749 -1.037842 3.142624 -3.610222 -0.948389 4.326696 7.314777 16.111286 22.331428 29.564976 -22.735477 -0.000003 0.000002 0.000001 -36.109120 11.832685 -7.288994 -26.866650 -11.667888 -50.286110 -0.000175 -85.669738 -0.000141 -107.280183 -10.150753 43.933723 3.294268 6.664563 3.569115 21.953451 5.414393 2.008966 -5.063075 -9.776112 2.761714 -0.000002 -0.000000 0.000000 1.256547 5.899216 -36.550060 2.492803 4.794086 -54.926489 0.447222 2.246907 -22.511912 0.000001 0.000000 -0.000003 3.405541 7.806776 -52.162530 3.044755 5.136216 -61.297116 0.311754 1.887354 -18.757482 -0.000001 0.000000 0.000001 0.602290 6.010164 -59.278665 3.381800 5.306134 -64.999570 0.462149 2.282542 -22.889596 -0.000000 -0.000000 -0.000001 -5.014451 4.407118 -68.862869 2.979216 5.099934 -60.562427 0.249292 1.692387 -16.757608 -0.000000 -0.000002 -0.000002 -39.317479 -10.396829 -3.555773 -44.557050 74.967255 96.539970 -0.003403 88.855201 0.003536 -64.461222 -0.556199 -3.948251 6.372168 -4.136016 7.340481 21.498302 -19.570886 -15.884225 -0.522057 -46.647856 -30.606750 -0.000001 -0.000003 -0.000003 -0.341233 -0.840357 11.594139 0.664296 -2.399050 30.950336 0.473560 -2.047966 26.037731 -0.000000 -0.000000 0.000001 3.119144 -6.827278 55.745262 6.183618 -4.400430 109.152632 0.465097 -2.030542 25.799764 -0.000001 0.000000 0.000000 -3.298524 -3.024529 59.911926 5.313995 -4.610713 98.116781 1.900447 -3.755077 53.675800 -0.000000 0.000000 -0.000000 -3.923305 -3.607898 66.485936 3.660016 -4.549405 77.623413 2.127189 -3.911313 57.066616 0.000000 -0.000000 -0.000000 -5.893461 12.653337 -1.769722 74.061367 6.323526 4.319957 -11.363803 -11.261570 -25.374494 -33.896344 -18.676322 22.065947 0.000000 -0.000002 0.000000 -43.287205 -13.880740 18.077043 26.135364 -6.633577 -1.308768 43.316032 5.115962 9.970541 -7.648873 1.522566 -7.532831 0.000002 0.000003 0.000002 
